<?xml version="1.0" standalone="no"?>
<!DOCTYPE svg PUBLIC "-//W3C//DTD SVG 1.1//EN" "http://www.w3.org/Graphics/SVG/1.1/DTD/svg11.dtd">
<svg xmlns="http://www.w3.org/2000/svg" fill-rule="evenodd" width="235.000mm" height="187.500mm" viewBox="0 0 235.000 187.500">
	<g id="Inkplate10_Case_v1.6_Bottom">
		<path style="fill:none;stroke:black;" d="m9.192,4.308l0.493,0.642l0.310,0.748l0.106,0.802l-0.106,0.802l-0.310,0.748l-0.493,0.642l-0.642,0.493l-0.748,0.310l-0.802,0.106l-0.802,-0.106l-0.748,-0.310l-0.642,-0.493l-0.493,-0.642l-0.310,-0.748l-0.106,-0.802l0.106,-0.802l0.310,-0.748l0.493,-0.642l0.642,-0.493l0.748,-0.310l0.802,-0.106l0.802,0.106l0.748,0.310zm216.123,175.742l-0.310,-0.748l-0.106,-0.802l0.106,-0.802l0.310,-0.748l0.493,-0.642l0.642,-0.493l0.748,-0.310l0.802,-0.106l0.802,0.106l0.748,0.310l0.642,0.493l0.493,0.642l0.310,0.748l0.106,0.802l-0.106,0.802l-0.310,0.748l-0.493,0.642l-0.642,0.493l-0.748,0.310l-0.802,0.106l-0.802,-0.106l-0.748,-0.310l-0.642,-0.493zm-215.631,-0.000l-0.493,0.642l-0.642,0.493l-0.748,0.310l-0.802,0.106l-0.802,-0.106l-0.748,-0.310l-0.642,-0.493l-0.493,-0.642l-0.310,-0.748l-0.106,-0.802l0.106,-0.802l0.310,-0.748l0.493,-0.642l0.642,-0.493l0.748,-0.310l0.802,-0.106l0.802,0.106l0.748,0.310l0.642,0.493l0.493,0.642l0.310,0.748l0.106,0.802l-0.106,0.802zm223.056,-178.741l0.950,0.950l0.715,1.138l0.444,1.268l0.150,1.335l0.000,175.500l-0.150,1.335l-0.444,1.268l-0.715,1.138l-0.950,0.950l-1.138,0.715l-1.268,0.444l-1.335,0.150l-223.000,-0.000l-1.335,-0.150l-1.268,-0.444l-1.138,-0.715l-0.950,-0.950l-0.715,-1.138l-0.444,-1.268l-0.150,-1.335l0.000,-175.500l0.150,-1.335l0.444,-1.268l0.715,-1.138l0.950,-0.950l1.138,-0.715l1.268,-0.444l1.335,-0.150l223.000,-0.000l1.335,0.150l1.268,0.444zm-87.543,168.197l-0.748,0.310l-0.642,0.493l-0.493,0.642l-0.310,0.748l-0.106,0.802l0.106,0.802l0.310,0.748l0.493,0.642l0.642,0.493l0.748,0.310l0.802,0.106l0.802,-0.106l0.748,-0.310l0.642,-0.493l0.493,-0.642l0.310,-0.748l0.106,-0.802l-0.106,-0.802l-0.310,-0.748l-0.493,-0.642l-0.642,-0.493l-0.748,-0.310l-0.802,-0.106zm-54.648,0.310l-0.748,-0.310l-0.802,-0.106l-0.802,0.106l-0.748,0.310l-0.642,0.493l-0.493,0.642l-0.310,0.748l-0.106,0.802l0.106,0.802l0.310,0.748l0.493,0.642l0.642,0.493l0.748,0.310l0.802,0.106l0.802,-0.106l0.748,-0.310l0.642,-0.493l0.493,-0.642l0.310,-0.748l0.106,-0.802l-0.106,-0.802l-0.310,-0.748l-0.493,-0.642zm115.415,-122.452l-0.965,-0.400l-0.828,-0.636l-0.636,-0.828l-0.400,-0.965l-0.136,-1.035l0.000,-2.100l0.000,-0.000l1.800,-1.800l0.000,-2.100l0.075,-0.569l0.220,-0.531l0.350,-0.456l0.456,-0.350l0.531,-0.220l0.569,-0.075l0.569,0.075l0.531,0.220l0.456,0.350l0.350,0.456l0.220,0.531l0.075,0.569l0.000,2.100l1.800,1.800l0.000,-0.000l0.000,2.100l-0.136,1.035l-0.400,0.965l-0.636,0.828l-0.828,0.636l-0.965,0.400l-1.035,0.136zm24.720,-42.414l-0.493,-0.642l-0.642,-0.493l-0.748,-0.310l-0.802,-0.106l-0.802,0.106l-0.748,0.310l-0.642,0.493l-0.493,0.642l-0.310,0.748l-0.106,0.802l0.106,0.802l0.310,0.748l0.493,0.642l0.642,0.493l0.748,0.310l0.802,0.106l0.802,-0.106l0.748,-0.310l0.642,-0.493l0.493,-0.642l0.310,-0.748l0.106,-0.802l-0.106,-0.802zm-21.779,47.450l0.220,0.531l0.075,0.569l-0.075,0.569l-0.220,0.531l-0.350,0.456l-0.456,0.350l-0.531,0.220l-0.569,0.075l-2.100,-0.000l-1.800,1.800l0.000,0.000l-2.100,-0.000l-1.035,-0.136l-0.965,-0.400l-0.828,-0.636l-0.636,-0.828l-0.400,-0.965l-0.136,-1.035l0.136,-1.035l0.400,-0.965l0.636,-0.828l0.828,-0.636l0.965,-0.400l1.035,-0.136l2.100,-0.000l0.000,0.000l1.800,1.800l2.100,-0.000l0.569,0.075l0.531,0.220l0.456,0.350zm-5.805,85.100l1.800,-1.800l2.100,-0.000l0.569,-0.075l0.531,-0.220l0.456,-0.350l0.350,-0.456l0.220,-0.531l0.075,-0.569l-0.075,-0.569l-0.220,-0.531l-0.350,-0.456l-0.456,-0.350l-0.531,-0.220l-0.569,-0.075l-2.100,-0.000l-1.800,-1.800l0.000,-0.000l-2.100,-0.000l-1.035,0.136l-0.965,0.400l-0.828,0.636l-0.636,0.828l-0.400,0.965l-0.136,1.035l0.136,1.035l0.400,0.965l0.636,0.828l0.828,0.636l0.965,0.400l1.035,0.136l2.100,-0.000zm-126.714,3.651l-0.254,-0.331l-0.331,-0.254l-0.386,-0.160l-0.414,-0.055l-0.414,0.055l-0.386,0.160l-0.331,0.254l-0.254,0.331l-0.160,0.386l-0.055,0.414l0.055,0.414l0.160,0.386l0.254,0.331l0.331,0.254l0.386,0.160l0.414,0.055l0.414,-0.055l0.386,-0.160l0.331,-0.254l0.254,-0.331l0.160,-0.386l0.055,-0.414l-0.055,-0.414zm-44.922,-95.650l-0.636,0.828l-0.828,0.636l-0.965,0.400l-1.035,0.136l-1.035,-0.136l-0.965,-0.400l-0.828,-0.636l-0.636,-0.828l-0.400,-0.965l-0.136,-1.035l0.000,-2.100l0.000,-0.000l1.800,-1.800l0.000,-2.100l0.075,-0.569l0.220,-0.531l0.350,-0.456l0.456,-0.350l0.531,-0.220l0.569,-0.075l0.569,0.075l0.531,0.220l0.456,0.350l0.350,0.456l0.220,0.531l0.075,0.569l0.000,2.100l1.800,1.800l0.000,-0.000l0.000,2.100l-0.136,1.035z"/>
	</g>
</svg>